<?xml version="1.0" encoding="utf-8"?>
<!-- Generator: Adobe Illustrator 28.0.0, SVG Export Plug-In . SVG Version: 6.00 Build 0)  -->
<svg version="1.1" id="_ffff_2" xmlns="http://www.w3.org/2000/svg" xmlns:xlink="http://www.w3.org/1999/xlink" x="0px" y="0px"
	 viewBox="0 0 113 140.7" style="enable-background:new 0 0 113 140.7;" xml:space="preserve">
<style type="text/css">
	.st0{fill:#FF5252;}
	.st1{fill:#A02424;}
	.st2{clip-path:url(#SVGID_00000183247327276878098520000005326381951595570615_);}
	.st3{clip-path:url(#SVGID_00000171697768147982979870000009636207266230430109_);}
	.st4{fill:none;}
</style>
<g transform="rotate(180 287.5 264.29)">
	<path id="_ffff_1-2" class="st0" d="M575,482l-22.1,18.4L518.5,443L575,482z M462,482l56.5-39v-55.2L462,482z M518.5,529.1v-70.6
		l-28.3,47.1L518.5,529.1z"/>
	<path id="_ffff_1-2_00000005958485052949524510000015049830207274364823_" class="st1" d="M462,482l56.5-39l-34.4,57.4L462,482z
		 M518.5,387.8V443l56.5,39L518.5,387.8z M518.5,529.1l28.3-23.5l-28.3-47.1V529.1L518.5,529.1z"/>
</g>
<g transform="rotate(0 0 0)">
	<g>
		<defs>
			<polygon id="SVGID_1_" points="-230,-216.4 -229,-216.4 -230,-215.4 			"/>
		</defs>
		<defs>
			<polygon id="SVGID_00000137093182412860711540000013500351650455839144_" points="-232,-218.4 -233,-218.4 -232,-219.4 			"/>
		</defs>
		<clipPath id="SVGID_00000083780334123527438980000009878260770188834186_">
			<use xlink:href="#SVGID_1_"  style="overflow:visible;"/>
		</clipPath>
		
			<clipPath id="SVGID_00000114774922595635088270000000896952484632693148_" style="clip-path:url(#SVGID_00000083780334123527438980000009878260770188834186_);">
			<use xlink:href="#SVGID_00000137093182412860711540000013500351650455839144_"  style="overflow:visible;"/>
		</clipPath>
		<g style="clip-path:url(#SVGID_00000114774922595635088270000000896952484632693148_);">
			<path class="st4" d="M55.5,180"/>
		</g>
	</g>
</g>
</svg>
